<svg xmlns="http://www.w3.org/2000/svg" version="1.1" xmlns:xlink="http://www.w3.org/1999/xlink" xmlns:svgjs="http://svgjs.dev/svgjs" width="1920" height="1080" preserveAspectRatio="none" viewBox="0 0 1920 1080"><g mask="url(&quot;#SvgjsMask1074&quot;)" fill="none"><rect width="1920" height="1080" x="0" y="0" fill="#0e2a47"></rect><path d="M0,666.383C130.38,672.403,279.238,671.875,374.34,582.484C468.245,494.218,426.622,336.464,477.135,217.9C525.714,103.875,680.782,27.335,663.12,-95.342C645.457,-218.024,483.69,-255.497,396.321,-343.414C316.747,-423.488,270.616,-532.237,172.854,-588.685C58.422,-654.759,-73.119,-716.73,-202.332,-689.079C-333.676,-660.972,-448.32,-561.442,-510.594,-442.432C-568.545,-331.683,-521.395,-200.247,-523.517,-75.27C-525.329,31.454,-550.317,135.503,-522.152,238.459C-490.403,354.518,-445.828,472.644,-352.765,548.913C-254.925,629.096,-126.364,660.549,0,666.383" fill="#0c253f"></path><path d="M1920 1705.6860000000001C2072.77 1731.2849999999999 2229.605 1846.04 2369.322 1779.158 2507.654 1712.938 2552.911 1534.561 2588.907 1385.48 2620.734 1253.664 2558.989 1123.526 2560.365 987.929 2562.08 818.908 2676.008 642.473 2597.9700000000003 492.53599999999994 2519.241 341.27099999999996 2338.758 237.03700000000003 2168.249 234.54200000000003 2001.455 232.10199999999998 1896.867 413.64700000000005 1743.836 480.039 1617.144 535.004 1450.384 490.817 1352.649 588.3879999999999 1254.0410000000002 686.8299999999999 1257.255 843.982 1240.6970000000001 982.331 1224.5030000000002 1117.636 1198.618 1259.663 1257.605 1382.5059999999999 1316.187 1504.5059999999999 1436.41 1583.875 1558.041 1643.219 1670.354 1698.016 1796.75 1685.034 1920 1705.6860000000001" fill="#102f50"></path></g><defs><mask id="SvgjsMask1074"><rect width="1920" height="1080" fill="#ffffff"></rect></mask></defs></svg>