<svg xmlns="http://www.w3.org/2000/svg" version="1.1" xmlns:xlink="http://www.w3.org/1999/xlink" xmlns:svgjs="http://svgjs.dev/svgjs" width="1440" height="560" preserveAspectRatio="none" viewBox="0 0 1440 560"><g mask="url(&quot;#SvgjsMask1083&quot;)" fill="none"><rect width="1440" height="560" x="0" y="0" fill="url(&quot;#SvgjsLinearGradient1084&quot;)"></rect><path d="M720 714.04C829.65 715.88 914 629.08 991.46 551.46 1068.81 473.97 1144.8 389.17 1153.16 280 1162.1 163.45 1116.1 49.11 1036.54-36.54 953.95-125.45 840.77-198.14 720-186.31 605.52-175.09 535.45-66.8 460.04 20.04 392.41 97.93 315.6 176.84 315.09 280 314.58 383.5 386.94 466.8 457.52 542.48 531.64 621.94 611.34 712.21 720 714.04" fill="#1c538e"></path><path d="M720 560.85C790.95 562.04 845.53 505.87 895.65 455.65 945.7 405.51 994.87 350.64 1000.28 280 1006.07 204.58 976.3 130.6 924.82 75.18 871.38 17.65 798.14-29.39 720-21.73 645.93-14.47 600.58 55.6 551.79 111.79 508.03 162.19 458.33 213.25 458 280 457.67 346.97 504.49 400.87 550.16 449.84 598.12 501.25 649.69 559.66 720 560.85" fill="#2774c6"></path><path d="M720 407.66C752.25 408.2 777.06 382.67 799.84 359.84 822.59 337.05 844.94 312.11 847.4 280 850.03 245.72 836.5 212.09 813.1 186.9 788.81 160.75 755.52 139.37 720 142.85 686.33 146.15 665.72 178 643.54 203.54 623.65 226.45 601.06 249.66 600.91 280 600.76 310.44 622.04 334.94 642.8 357.2 664.6 380.57 688.04 407.12 720 407.66" fill="#488fdb"></path></g><defs><mask id="SvgjsMask1083"><rect width="1440" height="560" fill="#ffffff"></rect></mask><linearGradient x1="15.28%" y1="-39.29%" x2="84.72%" y2="139.29%" gradientUnits="userSpaceOnUse" id="SvgjsLinearGradient1084"><stop stop-color="#0e2a47" offset="0"></stop><stop stop-color="rgba(59, 84, 118, 1)" offset="1"></stop></linearGradient></defs></svg>